<?xml version="1.0" encoding="UTF-8"?>
<svg xmlns="http://www.w3.org/2000/svg" xmlns:xlink="http://www.w3.org/1999/xlink" width="100pt" height="100pt" viewBox="0 0 100 100" version="1.1">
<g id="surface1">
<path style=" stroke:none;fill-rule:nonzero;fill:rgb(6.666667%,66.666667%,73.333333%);fill-opacity:1;" d="M 97.207031 49.816406 C 97.207031 75.726562 76.203125 96.730469 50.292969 96.730469 C 24.378906 96.730469 3.375 75.726562 3.375 49.816406 C 3.375 23.902344 24.378906 2.898438 50.292969 2.898438 C 76.203125 2.898438 97.207031 23.902344 97.207031 49.816406 Z M 97.207031 49.816406 "/>
<path style=" stroke:none;fill-rule:nonzero;fill:rgb(100%,100%,100%);fill-opacity:0.941176;" d="M 29.390625 41.222656 L 27.203125 41.222656 L 25.117188 33.886719 C 25.027344 33.566406 24.914062 33.105469 24.78125 32.503906 C 24.644531 31.898438 24.5625 31.476562 24.535156 31.242188 C 24.480469 31.601562 24.386719 32.066406 24.257812 32.640625 C 24.132812 33.210938 24.03125 33.636719 23.945312 33.917969 L 21.910156 41.222656 L 19.722656 41.222656 L 18.132812 35.0625 L 16.515625 28.917969 L 18.570312 28.917969 L 20.328125 36.089844 C 20.601562 37.238281 20.800781 38.253906 20.917969 39.136719 C 20.980469 38.660156 21.070312 38.125 21.195312 37.535156 C 21.316406 36.949219 21.429688 36.472656 21.53125 36.105469 L 23.535156 28.917969 L 25.527344 28.917969 L 27.582031 36.140625 C 27.777344 36.808594 27.984375 37.808594 28.203125 39.136719 C 28.289062 38.332031 28.492188 37.3125 28.808594 36.074219 L 30.5625 28.917969 L 32.597656 28.917969 Z M 29.390625 41.222656 "/>
<path style=" stroke:none;fill-rule:nonzero;fill:rgb(100%,100%,100%);fill-opacity:0.941176;" d="M 42.375 36.550781 C 42.375 38.074219 41.988281 39.257812 41.207031 40.113281 C 40.425781 40.964844 39.339844 41.390625 37.949219 41.390625 C 37.082031 41.390625 36.3125 41.195312 35.644531 40.800781 C 34.976562 40.410156 34.464844 39.84375 34.105469 39.109375 C 33.746094 38.375 33.566406 37.523438 33.566406 36.550781 C 33.566406 35.042969 33.953125 33.863281 34.726562 33.019531 C 35.5 32.171875 36.59375 31.746094 38 31.746094 C 39.347656 31.746094 40.414062 32.183594 41.199219 33.050781 C 41.984375 33.914062 42.375 35.082031 42.375 36.550781 Z M 35.601562 36.550781 C 35.601562 38.703125 36.394531 39.777344 37.984375 39.777344 C 39.554688 39.777344 40.339844 38.703125 40.339844 36.550781 C 40.339844 34.425781 39.550781 33.363281 37.96875 33.363281 C 37.136719 33.363281 36.535156 33.636719 36.15625 34.1875 C 35.789062 34.738281 35.601562 35.527344 35.601562 36.550781 Z M 35.601562 36.550781 "/>
<path style=" stroke:none;fill-rule:nonzero;fill:rgb(100%,100%,100%);fill-opacity:0.941176;" d="M 52.84375 41.222656 L 50.859375 41.222656 L 50.859375 35.5 C 50.859375 34.78125 50.714844 34.246094 50.421875 33.894531 C 50.136719 33.539062 49.679688 33.363281 49.050781 33.363281 C 48.214844 33.363281 47.601562 33.609375 47.214844 34.101562 C 46.828125 34.597656 46.632812 35.425781 46.632812 36.585938 L 46.632812 41.222656 L 44.65625 41.222656 L 44.65625 31.914062 L 46.207031 31.914062 L 46.484375 33.136719 L 46.585938 33.136719 C 46.863281 32.691406 47.261719 32.351562 47.78125 32.109375 C 48.296875 31.867188 48.867188 31.746094 49.496094 31.746094 C 51.730469 31.746094 52.84375 32.882812 52.84375 35.15625 Z M 52.84375 41.222656 "/>
<path style=" stroke:none;fill-rule:nonzero;fill:rgb(100%,100%,100%);fill-opacity:0.941176;" d="M 58.738281 41.390625 C 57.574219 41.390625 56.667969 40.96875 56.019531 40.128906 C 55.367188 39.289062 55.042969 38.105469 55.042969 36.585938 C 55.042969 35.058594 55.371094 33.875 56.027344 33.027344 C 56.6875 32.171875 57.601562 31.746094 58.769531 31.746094 C 59.992188 31.746094 60.925781 32.199219 61.5625 33.101562 L 61.664062 33.101562 C 61.570312 32.433594 61.523438 31.90625 61.523438 31.519531 L 61.523438 28.128906 L 63.507812 28.128906 L 63.507812 41.222656 L 61.960938 41.222656 L 61.613281 40.003906 L 61.523438 40.003906 C 60.886719 40.929688 59.960938 41.390625 58.738281 41.390625 Z M 59.265625 39.792969 C 60.082031 39.792969 60.671875 39.566406 61.042969 39.109375 C 61.414062 38.652344 61.601562 37.90625 61.613281 36.878906 L 61.613281 36.601562 C 61.613281 35.429688 61.421875 34.597656 61.042969 34.101562 C 60.660156 33.609375 60.0625 33.363281 59.25 33.363281 C 58.554688 33.363281 58.019531 33.644531 57.640625 34.214844 C 57.265625 34.773438 57.078125 35.574219 57.078125 36.621094 C 57.078125 37.652344 57.261719 38.441406 57.625 38.984375 C 57.988281 39.523438 58.539062 39.792969 59.265625 39.792969 Z M 59.265625 39.792969 "/>
<path style=" stroke:none;fill-rule:nonzero;fill:rgb(100%,100%,100%);fill-opacity:0.941176;" d="M 70.402344 41.390625 C 68.953125 41.390625 67.820312 40.96875 67 40.128906 C 66.1875 39.28125 65.78125 38.117188 65.78125 36.636719 C 65.78125 35.117188 66.160156 33.921875 66.917969 33.050781 C 67.675781 32.183594 68.714844 31.746094 70.039062 31.746094 C 71.265625 31.746094 72.238281 32.121094 72.949219 32.867188 C 73.664062 33.613281 74.019531 34.640625 74.019531 35.945312 L 74.019531 37.015625 L 67.816406 37.015625 C 67.84375 37.917969 68.089844 38.613281 68.550781 39.101562 C 69.007812 39.585938 69.65625 39.828125 70.492188 39.828125 C 71.042969 39.828125 71.554688 39.777344 72.023438 39.675781 C 72.5 39.566406 73.011719 39.394531 73.554688 39.152344 L 73.554688 40.761719 C 73.074219 40.992188 72.585938 41.152344 72.09375 41.25 C 71.597656 41.34375 71.035156 41.390625 70.402344 41.390625 Z M 70.039062 33.246094 C 69.410156 33.246094 68.90625 33.445312 68.523438 33.84375 C 68.148438 34.242188 67.925781 34.820312 67.851562 35.585938 L 72.074219 35.585938 C 72.0625 34.816406 71.878906 34.234375 71.519531 33.84375 C 71.160156 33.445312 70.667969 33.246094 70.039062 33.246094 Z M 70.039062 33.246094 "/>
<path style=" stroke:none;fill-rule:nonzero;fill:rgb(100%,100%,100%);fill-opacity:0.941176;" d="M 80.988281 31.746094 C 81.386719 31.746094 81.714844 31.777344 81.972656 31.832031 L 81.777344 33.675781 C 81.496094 33.605469 81.207031 33.574219 80.902344 33.574219 C 80.113281 33.574219 79.46875 33.832031 78.976562 34.347656 C 78.488281 34.863281 78.242188 35.535156 78.242188 36.359375 L 78.242188 41.222656 L 76.265625 41.222656 L 76.265625 31.914062 L 77.816406 31.914062 L 78.074219 33.558594 L 78.175781 33.558594 C 78.484375 33 78.886719 32.558594 79.378906 32.234375 C 79.878906 31.910156 80.414062 31.746094 80.988281 31.746094 Z M 80.988281 31.746094 "/>
<path style=" stroke:none;fill-rule:nonzero;fill:rgb(100%,100%,100%);fill-opacity:0.941176;" d="M 26.628906 51.394531 C 24.738281 51.394531 23.273438 52.105469 22.234375 53.53125 C 21.199219 54.949219 20.679688 56.925781 20.679688 59.464844 C 20.679688 64.746094 22.664062 67.386719 26.628906 67.386719 C 28.292969 67.386719 30.304688 66.972656 32.671875 66.140625 L 32.671875 70.351562 C 30.726562 71.164062 28.554688 71.566406 26.15625 71.566406 C 22.710938 71.566406 20.074219 70.527344 18.25 68.441406 C 16.425781 66.34375 15.511719 63.34375 15.511719 59.429688 C 15.511719 56.96875 15.960938 54.8125 16.855469 52.964844 C 17.753906 51.109375 19.039062 49.6875 20.714844 48.703125 C 22.398438 47.710938 24.371094 47.214844 26.628906 47.214844 C 28.929688 47.214844 31.242188 47.769531 33.5625 48.882812 L 31.941406 52.964844 C 31.054688 52.546875 30.164062 52.175781 29.269531 51.863281 C 28.371094 51.550781 27.492188 51.394531 26.628906 51.394531 Z M 26.628906 51.394531 "/>
<path style=" stroke:none;fill-rule:nonzero;fill:rgb(100%,100%,100%);fill-opacity:0.941176;" d="M 47.726562 71.242188 L 42.019531 52.65625 L 41.875 52.65625 C 42.082031 56.4375 42.183594 58.960938 42.183594 60.226562 L 42.183594 71.242188 L 37.695312 71.242188 L 37.695312 47.554688 L 44.53125 47.554688 L 50.140625 65.671875 L 50.238281 65.671875 L 56.183594 47.554688 L 63.019531 47.554688 L 63.019531 71.242188 L 58.339844 71.242188 L 58.339844 60.03125 C 58.339844 59.5 58.34375 58.890625 58.355469 58.199219 C 58.375 57.507812 58.453125 55.671875 58.582031 52.691406 L 58.4375 52.691406 L 52.328125 71.242188 Z M 47.726562 71.242188 "/>
<path style=" stroke:none;fill-rule:nonzero;fill:rgb(100%,100%,100%);fill-opacity:0.941176;" d="M 82.984375 64.664062 C 82.984375 66.804688 82.210938 68.488281 80.667969 69.722656 C 79.132812 70.953125 76.992188 71.566406 74.25 71.566406 C 71.722656 71.566406 69.488281 71.09375 67.542969 70.140625 L 67.542969 65.476562 C 69.140625 66.1875 70.492188 66.691406 71.59375 66.980469 C 72.707031 67.273438 73.722656 67.421875 74.640625 67.421875 C 75.742188 67.421875 76.582031 67.210938 77.167969 66.789062 C 77.761719 66.367188 78.058594 65.738281 78.058594 64.910156 C 78.058594 64.445312 77.929688 64.035156 77.667969 63.675781 C 77.410156 63.308594 77.027344 62.957031 76.519531 62.625 C 76.023438 62.289062 75 61.753906 73.457031 61.019531 C 72.007812 60.339844 70.921875 59.6875 70.199219 59.058594 C 69.476562 58.433594 68.898438 57.703125 68.464844 56.871094 C 68.035156 56.039062 67.816406 55.066406 67.816406 53.953125 C 67.816406 51.859375 68.523438 50.210938 69.941406 49.011719 C 71.367188 47.8125 73.332031 47.214844 75.839844 47.214844 C 77.070312 47.214844 78.242188 47.359375 79.355469 47.652344 C 80.476562 47.941406 81.648438 48.355469 82.871094 48.882812 L 81.25 52.789062 C 79.984375 52.269531 78.9375 51.90625 78.105469 51.703125 C 77.285156 51.496094 76.476562 51.394531 75.675781 51.394531 C 74.726562 51.394531 73.996094 51.617188 73.488281 52.058594 C 72.980469 52.5 72.726562 53.078125 72.726562 53.792969 C 72.726562 54.234375 72.828125 54.625 73.035156 54.957031 C 73.242188 55.285156 73.566406 55.601562 74.007812 55.914062 C 74.460938 56.21875 75.523438 56.769531 77.199219 57.566406 C 79.414062 58.625 80.929688 59.691406 81.753906 60.761719 C 82.574219 61.820312 82.984375 63.121094 82.984375 64.664062 Z M 82.984375 64.664062 "/>
</g>
</svg>
